<?xml version="1.0" encoding="utf-8"?>
<!-- Generator: Adobe Illustrator 27.5.0, SVG Export Plug-In . SVG Version: 6.00 Build 0)  -->
<svg version="1.1" id="Layer_1" xmlns="http://www.w3.org/2000/svg" xmlns:xlink="http://www.w3.org/1999/xlink" x="0px" y="0px"
	 viewBox="0 0 64 64" style="enable-background:new 0 0 64 64;" xml:space="preserve">
<style type="text/css">
	.st0{fill:#FFFFFF;}
	.st1{fill:#602F92;}
	.st2{fill:url(#SVGID_1_);}
	.st3{fill:url(#SVGID_00000002369408121218581060000006788761884028214150_);}
	.st4{opacity:0.6;fill:#A98798;enable-background:new    ;}
	.st5{opacity:0.6;fill:url(#SVGID_00000080189012661975107420000003261290834510271670_);enable-background:new    ;}
	.st6{opacity:0.6;fill:url(#SVGID_00000022549230499901446490000005541920672620920448_);enable-background:new    ;}
	.st7{fill:url(#SVGID_00000110442604969608384490000009688665093706700214_);}
	.st8{opacity:0.6;}
	.st9{opacity:0.6;fill:url(#SVGID_00000130643602042514382100000014496871801327255968_);enable-background:new    ;}
	.st10{opacity:0.7;}
	.st11{opacity:0.7;fill:url(#SVGID_00000035509903920631914180000000058471156264607394_);enable-background:new    ;}
	.st12{fill:url(#SVGID_00000003816148800209841450000001942696122253863055_);}
	.st13{opacity:0.6;fill:url(#SVGID_00000044889998580580240890000009050101695257425312_);enable-background:new    ;}
	.st14{opacity:0.2;fill:#FFFFFF;enable-background:new    ;}
	.st15{opacity:0.4;}
	.st16{opacity:0.6;fill:url(#SVGID_00000158744284042167865600000018321714314732671382_);enable-background:new    ;}
	.st17{opacity:0.3;fill:#FFFFFF;enable-background:new    ;}
	.st18{opacity:0.6;fill:url(#SVGID_00000170990545723531427130000017314460204601219244_);enable-background:new    ;}
	.st19{opacity:0.6;fill:url(#SVGID_00000160897972173263669150000011153921637776776342_);enable-background:new    ;}
	.st20{opacity:0.6;fill:url(#SVGID_00000033348495891342294370000013506603416721581732_);enable-background:new    ;}
	.st21{opacity:0.6;fill:url(#SVGID_00000030465338159252264970000007759661445929642927_);enable-background:new    ;}
	.st22{opacity:0.6;fill:url(#SVGID_00000132780261129587161340000009880493123242135725_);enable-background:new    ;}
</style>
<path class="st0" d="M16,0h32c8.8,0,16,7.2,16,16v32c0,8.8-7.2,16-16,16H16C7.2,64,0,56.8,0,48V16C0,7.2,7.2,0,16,0z"/>
<g>
	<path class="st1" d="M58,13.5c-0.6-2.2-2.5-4.5-5.8-7c-2.7-2-5.6-3.1-7.9-3.1c-0.5,0-0.9,0-1.3,0.1c-1,0.2-2,1-2.5,2.1
		c-0.7,1.4-0.9,3.2-0.4,4.3c0.2,0.3,0.4,0.8,0.6,1.1c-2.2,1.4-3.4,1.7-3.6,1.8c5.7,1.9,10.5,6,13.5,11.3l0-0.5
		c0.1-1.4,0.5-3,1.1-4.7c0.6,0.2,1.2,0.3,1.7,0.3c1.5,0,2.9-0.6,3.7-1.8C58.1,16.3,58.4,14.8,58,13.5z"/>
	
		<radialGradient id="SVGID_1_" cx="29.6196" cy="-1109.9167" r="1.1214" gradientTransform="matrix(16.5564 0 0 16.8596 -434.2823 18723.9414)" gradientUnits="userSpaceOnUse">
		<stop  offset="0" style="stop-color:#FBEAF3;stop-opacity:0.6"/>
		<stop  offset="0.6807" style="stop-color:#A087BF"/>
		<stop  offset="1" style="stop-color:#17102E"/>
	</radialGradient>
	<path class="st2" d="M52.1,17.7c3.8,1.1,5.3-1.9,4.8-3.9c-0.5-2-2.3-4-5.4-6.3c-3.1-2.3-6.2-3.2-8.2-2.8c-2,0.4-2.6,3.5-2.1,4.7
		c0.2,0.5,0.7,1.1,1.3,1.9c-0.8,0.5-1.5,1-2.2,1.4c3.8,1.7,7.1,4.4,9.6,7.8c0.3-1.1,0.7-2.2,1.1-3C51.4,17.5,51.7,17.6,52.1,17.7z"
		/>
	
		<radialGradient id="SVGID_00000011023582854898957790000011152652809579851156_" cx="27.4518" cy="-1102.8467" r="1.1214" gradientTransform="matrix(40.5074 0 0 41.2493 -1066.2179 45510.9023)" gradientUnits="userSpaceOnUse">
		<stop  offset="0" style="stop-color:#FBEAF3;stop-opacity:0.6"/>
		<stop  offset="0.6807" style="stop-color:#A087BF"/>
		<stop  offset="1" style="stop-color:#17102E"/>
	</radialGradient>
	<path style="fill:url(#SVGID_00000011023582854898957790000011152652809579851156_);" d="M30.4,59.2c12.8,0,23.2-10.6,23.2-23.6
		S43.2,11.9,30.4,11.9S7.2,22.5,7.2,35.6S17.6,59.2,30.4,59.2z"/>
	<path class="st4" d="M55,11.9c-3.2-3.4-5.8-4.3-9-5c-2.5-0.6-1.8-2,1.2-1.7c-1.5-0.5-2.8-0.6-3.8-0.4c-2,0.4-2.6,3.5-2.1,4.7
		c0.2,0.5,0.7,1.1,1.3,1.9c-1.1,0.8-2.1,1.3-2.9,1.7c0.4,0.2,0.8,0.4,1.4,0.7c1.4,0.8,2.9,2,2.9,2c-2.3-2-1.8-3,1.4-5.2
		c1-0.7,2.8-0.6,4.5,0.3c1.7,0.9,3.7,3.1,3.7,3.1l-1.9,3.7c0.1,0,0.2,0.1,0.4,0.1c1.2,0.3,2.2,0.3,2.9,0
		C55.8,17.2,58.1,15.3,55,11.9z"/>
	<path class="st1" d="M45.9,8.9c0.8,0.3,1.9,0.9,3.2,1.8c1.6,1.1,2.9,2.2,3.8,3.2c-1.5,1.9-2.4,4.6-3,6.5c0.3,0.4,0.6,0.8,0.9,1.3
		c0.3-1.1,0.8-2.6,1.5-4.2c0.2,0,0.4,0,0.6,0c0.5,0,1.1-0.1,1.5-0.5c0.3-0.3,0.7-0.7,0.7-1.6c0-0.8-0.6-1.8-1.9-3
		c-0.9-0.9-2.2-1.9-3.4-2.7c-3.6-2.4-6.1-3.1-7.2-1.9c-0.7,0.8-0.7,1.7-0.4,2.4c-1.3,0.9-2.5,1.5-3.2,1.9c0.5,0.2,1,0.4,1.5,0.6
		C41.8,11.9,43.7,10.7,45.9,8.9z M53.8,15c0.1,0.2,0.2,0.4,0.2,0.5c0,0.4-0.1,0.5-0.2,0.6c-0.2,0.1-0.5,0.2-0.8,0.2
		C53.2,15.8,53.5,15.4,53.8,15z M43.5,8.7c0.1-0.1,0.5-0.2,1-0.1c-0.4,0.3-0.8,0.6-1.2,0.9C43.2,9.2,43.2,8.9,43.5,8.7z"/>
	<path class="st1" d="M30.4,10.5c-13.6,0-24.6,11.2-24.6,25s11,25,24.6,25S55,49.4,55,35.6C55,21.7,44,10.5,30.4,10.5z M30.4,59.2
		c-12.8,0-23.2-10.6-23.2-23.6s10.4-23.6,23.2-23.6s23.2,10.6,23.2,23.6C53.6,48.6,43.2,59.2,30.4,59.2z"/>
	
		<linearGradient id="SVGID_00000156550979856276240750000005296537097770679737_" gradientUnits="userSpaceOnUse" x1="26.558" y1="-1361.2332" x2="34.2575" y2="-1407.8794" gradientTransform="matrix(1 0 0 1 0 1420.1101)">
		<stop  offset="0" style="stop-color:#9AD9E5"/>
		<stop  offset="0.6202" style="stop-color:#FFFFFF;stop-opacity:0"/>
	</linearGradient>
	<path style="opacity:0.6;fill:url(#SVGID_00000156550979856276240750000005296537097770679737_);enable-background:new    ;" d="
		M30.4,59.2c12.8,0,23.2-10.6,23.2-23.6S43.2,11.9,30.4,11.9S7.2,22.5,7.2,35.6S17.6,59.2,30.4,59.2z"/>
	<path class="st4" d="M30.2,56.3C17.6,54.2,9,42.1,11,29.2c0.9-5.7,3.7-10.6,7.7-14.1C13,18.5,8.6,24.5,7.5,31.8
		c-2,12.9,6.6,25,19.2,27.1c7.1,1.2,13.9-1.1,18.9-5.5C41.1,56.1,35.7,57.2,30.2,56.3z"/>
	
		<linearGradient id="SVGID_00000119811408380834233120000013735949214926121639_" gradientUnits="userSpaceOnUse" x1="46.9832" y1="-1400.3815" x2="27.4635" y2="-1382.7937" gradientTransform="matrix(1 0 0 1 0 1420.1101)">
		<stop  offset="0.2888" style="stop-color:#FFFFFF"/>
		<stop  offset="0.7796" style="stop-color:#FFFFFF;stop-opacity:0"/>
	</linearGradient>
	<path style="opacity:0.6;fill:url(#SVGID_00000119811408380834233120000013735949214926121639_);enable-background:new    ;" d="
		M34.1,12.2c-5.9-1-11.5,0.4-16.2,3.4c-0.1,0.1-0.2,0.2-0.2,0.2c1.8-1.1,4.4-2.1,4.4-2.1c-6.7,4-8.8,8.5-8.8,8.5
		c2.6-5.2,10.3-8.8,16.3-9.1c6-0.3,10,1.6,14.8,5.5c4.8,4,7.7,12.1,7.4,18.5c-0.2,6.4-3.6,11.6-3.6,11.6c2.3-3,3.7-5.2,4.5-7.4
		c0.2-0.7,0.3-1.4,0.4-2.1C55.3,26.5,46.8,14.3,34.1,12.2z"/>
	
		<linearGradient id="SVGID_00000137108796418235527740000000218297215420301964_" gradientUnits="userSpaceOnUse" x1="8.3091" y1="-1373.5366" x2="52.4652" y2="-1373.5366" gradientTransform="matrix(1 0 0 1 0 1420.1101)">
		<stop  offset="0" style="stop-color:#384EA2"/>
		<stop  offset="0.9952" style="stop-color:#D54799"/>
	</linearGradient>
	<path style="fill:url(#SVGID_00000137108796418235527740000000218297215420301964_);" d="M52.5,35.3c0,12.4-9.9,22.5-22.1,22.5
		S8.3,47.7,8.3,35.3H52.5z"/>
	<g class="st8">
		
			<linearGradient id="SVGID_00000002376970615374345620000008603191433079071880_" gradientUnits="userSpaceOnUse" x1="54.6661" y1="-1382.6653" x2="30.2365" y2="-1359.9933" gradientTransform="matrix(1 0 0 1 0 1420.1101)">
			<stop  offset="0.2888" style="stop-color:#FFFFFF"/>
			<stop  offset="0.7796" style="stop-color:#FFFFFF;stop-opacity:0"/>
		</linearGradient>
		<path style="opacity:0.6;fill:url(#SVGID_00000002376970615374345620000008603191433079071880_);enable-background:new    ;" d="
			M50.7,35.3c0,12.1-9.4,22-21.2,22.5c0.3,0,0.6,0,0.9,0c12.2,0,22.1-10.1,22.1-22.5H50.7z"/>
	</g>
	<g class="st10">
		
			<linearGradient id="SVGID_00000002385563565708457320000013229766243539191453_" gradientUnits="userSpaceOnUse" x1="8.3091" y1="-1373.5366" x2="31.9039" y2="-1373.5366" gradientTransform="matrix(1 0 0 1 0 1420.1101)">
			<stop  offset="0" style="stop-color:#2B2F82"/>
			<stop  offset="0.9952" style="stop-color:#72439A"/>
		</linearGradient>
		<path style="opacity:0.7;fill:url(#SVGID_00000002385563565708457320000013229766243539191453_);enable-background:new    ;" d="
			M11.4,35.3H8.3c0,12.4,9.9,22.5,22.1,22.5c0.5,0,1,0,1.5,0C20.5,56.9,11.4,47.2,11.4,35.3z"/>
	</g>
	
		<linearGradient id="SVGID_00000160882423393497873780000006563065792029867427_" gradientUnits="userSpaceOnUse" x1="8.3566" y1="-1382.705" x2="52.4252" y2="-1382.705" gradientTransform="matrix(1 0 0 1 0 1420.1101)">
		<stop  offset="0" style="stop-color:#2B2F82"/>
		<stop  offset="0.9952" style="stop-color:#A14298"/>
	</linearGradient>
	<path style="fill:url(#SVGID_00000160882423393497873780000006563065792029867427_);" d="M52.4,35.6c0-2.6-4.4-4.1-10.3-4.6
		c-4.2-0.3-8.5,0.1-13.4,1.6c-4.2,1.3-8.1,1.1-10.8,0.7c-6.2-0.7-9.6-0.8-9.6,2.2c0,4.4,8.8,9.9,22,8c6.7-1,10.1-3,14.1-4.3
		C48.7,37.8,52.4,37.8,52.4,35.6z"/>
	<path class="st0" d="M37.6,24.9c2.1,0,3.7-1.7,3.7-3.8s-1.7-3.8-3.7-3.8s-3.7,1.7-3.7,3.8S35.6,24.9,37.6,24.9z"/>
	<path class="st0" d="M43.7,27.7c0.9,0,1.6-0.7,1.6-1.6c0-0.9-0.7-1.6-1.6-1.6s-1.6,0.7-1.6,1.6C42.2,27,42.9,27.7,43.7,27.7z"/>
	<g class="st8">
		
			<linearGradient id="SVGID_00000052066273067524814690000012665529070703593133_" gradientUnits="userSpaceOnUse" x1="51.7603" y1="-1406.723" x2="48.509" y2="-1401.5347" gradientTransform="matrix(1 0 0 1 0 1420.1101)">
			<stop  offset="0.2888" style="stop-color:#FFFFFF"/>
			<stop  offset="0.7796" style="stop-color:#FFFFFF;stop-opacity:0"/>
		</linearGradient>
		<path style="opacity:0.6;fill:url(#SVGID_00000052066273067524814690000012665529070703593133_);enable-background:new    ;" d="
			M49.4,18C49.3,18,49.3,18,49.4,18c-0.3,0-0.5-0.3-0.5-0.6c0.4-1.9,2-3.8,2-3.9c0.2-0.2,0.5-0.2,0.7,0c0.2,0.2,0.2,0.5,0,0.7
			c0,0-1.5,1.8-1.8,3.5C49.8,17.9,49.6,18,49.4,18z"/>
	</g>
	<path class="st14" d="M28.9,53.2c0.6,0,1.2-0.5,1.2-1.2c0-0.7-0.5-1.2-1.2-1.2c-0.6,0-1.2,0.5-1.2,1.2
		C27.7,52.7,28.2,53.2,28.9,53.2z"/>
	<g class="st15">
		
			<linearGradient id="SVGID_00000093886405688188868920000015639993403641800836_" gradientUnits="userSpaceOnUse" x1="27.6969" y1="-1368.0903" x2="29.4544" y2="-1368.0903" gradientTransform="matrix(1 0 0 1 0 1420.1101)">
			<stop  offset="0.2888" style="stop-color:#FFFFFF"/>
			<stop  offset="0.7796" style="stop-color:#FFFFFF;stop-opacity:0"/>
		</linearGradient>
		<path style="opacity:0.6;fill:url(#SVGID_00000093886405688188868920000015639993403641800836_);enable-background:new    ;" d="
			M28.2,52.8c-0.5-0.5-0.5-1.2,0-1.7c0.1-0.1,0.2-0.1,0.2-0.2c-0.2,0-0.3,0.1-0.4,0.3c-0.5,0.5-0.5,1.2,0,1.7c0.4,0.4,1,0.5,1.4,0.2
			C29,53.2,28.5,53.1,28.2,52.8z"/>
	</g>
	<path class="st17" d="M29.3,51.7c0.1,0,0.2-0.1,0.2-0.3s-0.1-0.3-0.2-0.3c-0.1,0-0.2,0.1-0.2,0.3C29,51.6,29.1,51.7,29.3,51.7z"/>
	<path class="st14" d="M34.9,52.6c0.6,0,1.2-0.5,1.2-1.2c0-0.7-0.5-1.2-1.2-1.2c-0.6,0-1.2,0.5-1.2,1.2
		C33.8,52.1,34.3,52.6,34.9,52.6z"/>
	<g class="st15">
		
			<linearGradient id="SVGID_00000065075150168777438480000012040215045469514381_" gradientUnits="userSpaceOnUse" x1="33.7566" y1="-1368.6829" x2="35.5141" y2="-1368.6829" gradientTransform="matrix(1 0 0 1 0 1420.1101)">
			<stop  offset="0.2888" style="stop-color:#FFFFFF"/>
			<stop  offset="0.7796" style="stop-color:#FFFFFF;stop-opacity:0"/>
		</linearGradient>
		<path style="opacity:0.6;fill:url(#SVGID_00000065075150168777438480000012040215045469514381_);enable-background:new    ;" d="
			M34.3,52.2c-0.5-0.5-0.5-1.2,0-1.7c0.1-0.1,0.2-0.1,0.2-0.2c-0.2,0-0.3,0.1-0.4,0.3c-0.5,0.5-0.5,1.2,0,1.7c0.4,0.4,1,0.5,1.4,0.2
			C35.1,52.6,34.6,52.5,34.3,52.2z"/>
	</g>
	<path class="st17" d="M35.4,51.1c0.1,0,0.2-0.1,0.2-0.3s-0.1-0.3-0.2-0.3c-0.1,0-0.2,0.1-0.2,0.3S35.2,51.1,35.4,51.1z"/>
	<path class="st14" d="M31.9,55.3c0.5,0,0.9-0.4,0.9-0.9s-0.4-0.9-0.9-0.9c-0.5,0-0.9,0.4-0.9,0.9S31.5,55.3,31.9,55.3z"/>
	<g class="st15">
		
			<linearGradient id="SVGID_00000141453166376827667400000002059101571718984583_" gradientUnits="userSpaceOnUse" x1="31.0668" y1="-1365.6245" x2="32.3863" y2="-1365.6245" gradientTransform="matrix(1 0 0 1 0 1420.1101)">
			<stop  offset="0.2888" style="stop-color:#FFFFFF"/>
			<stop  offset="0.7796" style="stop-color:#FFFFFF;stop-opacity:0"/>
		</linearGradient>
		<path style="opacity:0.6;fill:url(#SVGID_00000141453166376827667400000002059101571718984583_);enable-background:new    ;" d="
			M31.4,55c-0.3-0.3-0.3-0.9,0-1.3c0,0,0.1-0.1,0.2-0.1c-0.1,0-0.2,0.1-0.3,0.2c-0.3,0.3-0.3,0.9,0,1.3c0.3,0.3,0.7,0.3,1.1,0.1
			C32.1,55.4,31.7,55.3,31.4,55z"/>
	</g>
	<path class="st17" d="M32.2,54.2c0.1,0,0.2-0.1,0.2-0.2c0-0.1-0.1-0.2-0.2-0.2s-0.2,0.1-0.2,0.2C32.1,54.1,32.1,54.2,32.2,54.2z"/>
	<path class="st14" d="M37.3,54.7c0.5,0,0.9-0.4,0.9-0.9c0-0.5-0.4-0.9-0.9-0.9c-0.5,0-0.9,0.4-0.9,0.9
		C36.4,54.3,36.8,54.7,37.3,54.7z"/>
	<g class="st15">
		
			<linearGradient id="SVGID_00000124138489878353913120000017294015035293356729_" gradientUnits="userSpaceOnUse" x1="36.408" y1="-1366.2584" x2="37.7274" y2="-1366.2584" gradientTransform="matrix(1 0 0 1 0 1420.1101)">
			<stop  offset="0.2888" style="stop-color:#FFFFFF"/>
			<stop  offset="0.7796" style="stop-color:#FFFFFF;stop-opacity:0"/>
		</linearGradient>
		<path style="opacity:0.6;fill:url(#SVGID_00000124138489878353913120000017294015035293356729_);enable-background:new    ;" d="
			M36.8,54.4c-0.3-0.3-0.3-0.9,0-1.3c0,0,0.1-0.1,0.2-0.1c-0.1,0-0.2,0.1-0.3,0.2c-0.3,0.3-0.3,0.9,0,1.3c0.3,0.3,0.7,0.3,1.1,0.1
			C37.4,54.7,37.1,54.6,36.8,54.4z"/>
	</g>
	<path class="st17" d="M37.6,53.5c0.1,0,0.2-0.1,0.2-0.2c0-0.1-0.1-0.2-0.2-0.2s-0.2,0.1-0.2,0.2C37.4,53.5,37.5,53.5,37.6,53.5z"/>
	<path class="st14" d="M23.9,52.8c1.1,0,1.9-0.9,1.9-1.9c0-1.1-0.9-1.9-1.9-1.9c-1.1,0-1.9,0.9-1.9,1.9S22.9,52.8,23.9,52.8z"/>
	<g class="st15">
		
			<linearGradient id="SVGID_00000090293404806906386070000015200077142388611469_" gradientUnits="userSpaceOnUse" x1="22.0193" y1="-1369.2296" x2="24.8894" y2="-1369.2296" gradientTransform="matrix(1 0 0 1 0 1420.1101)">
			<stop  offset="0.2888" style="stop-color:#FFFFFF"/>
			<stop  offset="0.7796" style="stop-color:#FFFFFF;stop-opacity:0"/>
		</linearGradient>
		<path style="opacity:0.6;fill:url(#SVGID_00000090293404806906386070000015200077142388611469_);enable-background:new    ;" d="
			M22.8,52.1c-0.7-0.8-0.7-2,0-2.7c0.1-0.1,0.2-0.2,0.4-0.3c-0.2,0.1-0.5,0.3-0.7,0.4c-0.7,0.8-0.7,2,0,2.7c0.6,0.6,1.6,0.8,2.3,0.3
			C24.2,52.8,23.4,52.6,22.8,52.1z"/>
	</g>
	<path class="st17" d="M24.6,50.2c0.2,0,0.4-0.2,0.4-0.4s-0.2-0.4-0.4-0.4c-0.2,0-0.4,0.2-0.4,0.4S24.4,50.2,24.6,50.2z"/>
	<path class="st14" d="M41,48c1.1,0,1.9-0.9,1.9-1.9s-0.9-1.9-1.9-1.9S39.1,45,39.1,46S39.9,48,41,48z"/>
	<g class="st15">
		
			<linearGradient id="SVGID_00000162317634277408354440000012187699021017834886_" gradientUnits="userSpaceOnUse" x1="39.0682" y1="-1374.0107" x2="41.9384" y2="-1374.0107" gradientTransform="matrix(1 0 0 1 0 1420.1101)">
			<stop  offset="0.2888" style="stop-color:#FFFFFF"/>
			<stop  offset="0.7796" style="stop-color:#FFFFFF;stop-opacity:0"/>
		</linearGradient>
		<path style="opacity:0.6;fill:url(#SVGID_00000162317634277408354440000012187699021017834886_);enable-background:new    ;" d="
			M39.9,47.3c-0.7-0.8-0.7-2,0-2.7c0.1-0.1,0.2-0.2,0.4-0.3c-0.2,0.1-0.5,0.3-0.7,0.4c-0.7,0.8-0.7,2,0,2.7c0.6,0.6,1.6,0.8,2.3,0.3
			C41.2,48,40.5,47.9,39.9,47.3z"/>
	</g>
	<path class="st17" d="M41.7,45.5c0.2,0,0.4-0.2,0.4-0.4c0-0.2-0.2-0.4-0.4-0.4c-0.2,0-0.4,0.2-0.4,0.4
		C41.2,45.3,41.4,45.5,41.7,45.5z"/>
</g>
</svg>
